<?xml version="1.0" encoding="UTF-8"?>
<svg width="445px" height="445px" viewBox="0 0 445 445" version="1.1" xmlns="http://www.w3.org/2000/svg" xmlns:xlink="http://www.w3.org/1999/xlink">
    <!-- Generator: Sketch 64 (93537) - https://sketch.com -->
    <title>Untitled 3</title>
    <desc>Created with Sketch.</desc>
    <g id="Page-1" stroke="none" stroke-width="1" fill="none" fill-rule="evenodd">
        <g id="ley" fill="#FFFFFF" fill-rule="nonzero">
            <path d="M389.992,382.265 L363.392,382.265 L363.392,197.345 C387.427,193.859 406.306,174.98 409.792,150.945 L436.912,150.945 C441.131,150.919 444.531,147.478 444.505,143.258 C444.489,140.64 443.133,138.212 440.912,136.825 L226.312,1.265 C223.791,-0.36 220.553,-0.36 218.032,1.265 L4.112,136.465 C0.356,138.436 -1.09,143.079 0.882,146.835 C2.207,149.359 4.821,150.942 7.672,150.945 L34.792,150.945 C38.278,174.98 57.157,193.859 81.192,197.345 L81.192,382.265 L54.632,382.265 C24.514,382.353 0.12,406.747 0.032,436.865 C0.032,441.107 3.47,444.545 7.712,444.545 L436.912,444.545 C441.154,444.545 444.592,441.107 444.592,436.865 C444.504,406.747 420.11,382.353 389.992,382.265 Z M41.992,135.585 L41.952,135.585 L34.312,135.585 L222.312,16.705 L410.312,135.585 L41.992,135.585 Z M61.152,170.985 L61.192,170.985 C55.716,165.522 51.973,158.565 50.432,150.985 L394.432,150.985 C390.699,169.291 374.635,182.467 355.952,182.545 L88.872,182.545 C78.463,182.529 68.488,178.37 61.152,170.985 Z M348.072,197.865 L348.072,382.265 L316.472,382.265 L316.472,197.865 L348.072,197.865 Z M301.152,197.865 L301.152,382.265 L253.472,382.265 L253.472,197.865 L301.152,197.865 Z M238.112,197.865 L238.112,382.265 L206.512,382.265 L206.512,197.865 L238.112,197.865 Z M191.192,197.865 L191.192,382.265 L143.512,382.265 L143.512,197.865 L191.192,197.865 Z M128.152,197.865 L128.152,382.265 L96.552,382.265 L96.552,197.865 L128.152,197.865 Z M16.152,429.185 C19.868,410.863 35.937,397.667 54.632,397.585 L389.992,397.585 C408.687,397.667 424.756,410.863 428.472,429.185 L16.152,429.185 Z" id="Shape"></path>
        </g>
    </g>
</svg>