<?xml version="1.0" encoding="UTF-8"?>
<svg width="512px" height="512px" viewBox="0 0 512 512" version="1.1" xmlns="http://www.w3.org/2000/svg" xmlns:xlink="http://www.w3.org/1999/xlink">
    <!-- Generator: Sketch 64 (93537) - https://sketch.com -->
    <title>Untitled 3</title>
    <desc>Created with Sketch.</desc>
    <g id="Page-1" stroke="none" stroke-width="1" fill="none" fill-rule="evenodd">
        <g id="salvar" fill="#FFFFFF" fill-rule="nonzero">
            <path d="M166,332 L346,332 C354.284,332 361,325.284 361,317 C361,308.716 354.284,302 346,302 L166,302 C157.716,302 151,308.716 151,317 C151,325.284 157.716,332 166,332 Z" id="Path"></path>
            <path d="M166,392 L346,392 C354.284,392 361,385.284 361,377 C361,368.716 354.284,362 346,362 L166,362 C157.716,362 151,368.716 151,377 C151,385.284 157.716,392 166,392 Z" id="Path"></path>
            <path d="M507.606,84.394 L427.606,4.394 C424.793,1.58 420.978,0 417,0 L15,0 C6.716,0 0,6.716 0,15 L0,497 C0,505.284 6.716,512 15,512 C21.912,512 492.495,512 497,512 C505.284,512 512,505.284 512,497 L512,95 C512,91.021 510.419,87.206 507.606,84.394 Z M121,30 L331,30 L331,130 L121,130 L121,30 Z M391,482 L121,482 L121,272 L391,272 L391,482 Z M482,482 L421,482 L421,257 C421,248.716 414.284,242 406,242 L106,242 C97.716,242 91,248.716 91,257 L91,482 L30,482 L30,30 L91,30 L91,145 C91,153.284 97.716,160 106,160 L346,160 C354.284,160 361,153.284 361,145 L361,30 L410.787,30 L482,101.213 L482,482 Z" id="Shape"></path>
            <path d="M166,452 L346,452 C354.284,452 361,445.284 361,437 C361,428.716 354.284,422 346,422 L166,422 C157.716,422 151,428.716 151,437 C151,445.284 157.716,452 166,452 Z" id="Path"></path>
        </g>
    </g>
</svg>